<?xml version="1.0" standalone="no"?><svg xmlns="http://www.w3.org/2000/svg" viewBox="0 0 1440 320"><path fill="#019e48" fill-opacity="1" d="M0,192L26.7,197.3C53.3,203,107,213,160,186.7C213.3,160,267,96,320,106.7C373.3,117,427,203,480,208C533.3,213,587,139,640,101.3C693.3,64,747,64,800,58.7C853.3,53,907,43,960,69.3C1013.3,96,1067,160,1120,176C1173.3,192,1227,160,1280,149.3C1333.3,139,1387,149,1413,154.7L1440,160L1440,0L1413.3,0C1386.7,0,1333,0,1280,0C1226.7,0,1173,0,1120,0C1066.7,0,1013,0,960,0C906.7,0,853,0,800,0C746.7,0,693,0,640,0C586.7,0,533,0,480,0C426.7,0,373,0,320,0C266.7,0,213,0,160,0C106.7,0,53,0,27,0L0,0Z"></path></svg>